<?xml version="1.0" encoding="utf-8"?>
<!-- Generator: Adobe Illustrator 25.2.1, SVG Export Plug-In . SVG Version: 6.00 Build 0)  -->
<svg version="1.1" xmlns="http://www.w3.org/2000/svg" xmlns:xlink="http://www.w3.org/1999/xlink" x="0px" y="0px"
	 viewBox="0 0 24 24" style="enable-background:new 0 0 24 24;" xml:space="preserve">
<style type="text/css">
	.st0{fill:#FFFFFF;}
	.st1{clip-path:url(#SVGID_2_);}
	.st2{clip-path:url(#SVGID_4_);}
	.st3{fill:#009FD0;}
	.st4{clip-path:url(#SVGID_6_);}
	.st5{clip-path:url(#SVGID_8_);}
	.st6{fill:#F93549;}
	.st7{fill-rule:evenodd;clip-rule:evenodd;fill:#009FD0;}
	.st8{fill:#505050;}
	.st9{fill:#C1C5C8;}
</style>
<g id="Icons">
	<path id="groups_1_" transform="translate(-1645.791 9889.966)" class="st3" d="M1657.8-9874.4c1.8,0,3.2,1.4,3.2,3.2
		c0,1.8-1.4,3.2-3.2,3.2c-1.8,0-3.2-1.4-3.2-3.2C1654.6-9873,1656-9874.4,1657.8-9874.4z M1657.8-9888c1.8,0,3.2,1.4,3.2,3.2
		c0,1.8-1.4,3.2-3.2,3.2c-1.8,0-3.2-1.4-3.2-3.2C1654.6-9886.5,1656-9888,1657.8-9888z M1651-9881.2c1.8,0,3.2,1.4,3.2,3.2
		s-1.4,3.2-3.2,3.2s-3.2-1.4-3.2-3.2S1649.2-9881.2,1651-9881.2z M1664.6-9881.2c1.8,0,3.2,1.4,3.2,3.2s-1.4,3.2-3.2,3.2
		s-3.2-1.4-3.2-3.2S1662.8-9881.2,1664.6-9881.2z"/>
</g>
<g id="Sets_Labeling">
</g>
</svg>
